<?xml version="1.0" encoding="UTF-8"?>
<svg width="110px" height="30px" viewBox="0 0 110 30" version="1.1" xmlns="http://www.w3.org/2000/svg" xmlns:xlink="http://www.w3.org/1999/xlink">
    <!-- Generator: Sketch 45.2 (43514) - http://www.bohemiancoding.com/sketch -->
    <title>typ-brand</title>
    <desc>Created with Sketch.</desc>
    <defs></defs>
    <g id="Page-1" stroke="none" stroke-width="1" fill="none" fill-rule="evenodd">
        <path d="M20.1523018,0.0337353791 L20.1523018,0.0337353791 L20.1523018,7.39371184 L23.359664,7.39371184 L23.359664,20.5680957 C23.359664,22.6133072 21.6964883,24.2768171 19.6509426,24.2768171 L15.0638397,24.2768171 L11.6736486,29.9903071 L8.28446009,24.2768171 L3.70805294,24.2768171 C1.66350996,24.2768171 0,22.6133072 0,20.5680957 L0,3.70872142 C0,1.66350996 1.66350996,0 3.70805294,0 L19.6509426,0 C19.8209485,0 19.9883134,0.0114904091 20.1523018,0.0337353791 Z M20.1523018,0.493099476 C19.9888481,0.467731465 19.8214072,0.454565711 19.6509426,0.454565711 L3.70805294,0.454565711 C1.91418958,0.454565711 0.453897232,1.91418958 0.453897232,3.70872142 L0.453897232,20.5680957 C0.453897232,22.3626276 1.91418958,23.8225857 3.70805294,23.8225857 L8.54282722,23.8225857 L11.6736486,29.099893 L14.8051384,23.8225857 L19.6509426,23.8225857 C21.4458086,23.8225857 22.9054325,22.3626276 22.9054325,20.5680957 L22.9054325,7.39371184 L20.1523018,7.39371184 L20.1523018,0.493099476 Z M13.2803378,8.67284638 L13.2803378,8.22229155 L18.6926779,8.22229155 L18.6926779,8.67284638 L13.2803378,8.67284638 Z M13.2803378,11.3791836 L13.2803378,10.9282945 L18.6926779,10.9282945 L18.6926779,11.3791836 L13.2803378,11.3791836 Z M4.71077142,14.0851865 L4.71077142,13.6339632 L18.6926779,13.6339632 L18.6926779,14.0851865 L4.71077142,14.0851865 Z M4.71077142,16.7921922 L4.71077142,16.3413031 L18.6926779,16.3413031 L18.6926779,16.7921922 L4.71077142,16.7921922 Z M4.71077142,19.4981951 L4.71077142,19.047306 L18.6926779,19.047306 L18.6926779,19.4981951 L4.71077142,19.4981951 Z M5.16199474,11.3791836 L5.16199474,4.16295289 L11.9270021,4.16295289 L11.9270021,11.3791836 L5.16199474,11.3791836 Z M5.61288382,10.9282945 L11.4757788,10.9282945 L11.4757788,4.61417621 L5.61288382,4.61417621 L5.61288382,10.9282945 Z M76.716654,2.81028566 C74.5902224,0.962943981 71.3962298,0 67.2095459,0 L66.9495076,0.00133695798 L66.9505103,0 L57.1539507,0 L51.3869825,7.15439636 L45.6648024,0 L20.1523018,0 L20.1523018,7.39371184 L28.3274656,7.39371184 L28.3274656,30 L37.3663042,30 L37.3663042,7.39371184 L41.6596105,7.39371184 L46.8346406,13.9441374 L46.8346406,30 L65.0476848,30 L65.0476848,22.5143723 L67.2038638,22.5143723 C71.2331209,22.5143723 74.3940238,21.4815723 76.5983333,19.4440483 C78.8106645,17.4028477 79.9337092,14.4755782 79.9337092,10.7454655 C79.9337092,7.33956504 78.8514417,4.67032845 76.716654,2.81028566 L76.716654,2.81028566 Z M76.1571371,18.9660858 C74.0764963,20.8892999 71.0646642,21.8639422 67.2038638,21.8639422 L64.3972548,21.8639422 L64.3972548,29.3204911 L56.2177459,29.3204911 L56.2177459,13.3271313 L66.4056999,0.676500735 L67.2038638,0.676500735 C71.2284416,0.676500735 74.285396,1.55956148 76.289496,3.30128348 C78.275547,5.0313071 79.2829449,7.53542939 79.2829449,10.7454655 C79.2829449,14.2867329 78.2310932,17.052899 76.1571371,18.9660858 Z M69.2687954,13.640648 C68.5525202,14.3241677 67.562837,14.6701056 66.3278221,14.6701056 L65.0476848,14.6701056 L65.0476848,7.80716609 L67.0026516,7.80716609 C69.2804938,7.80716609 70.3407015,8.75440082 70.3407015,10.7895851 C70.3407015,12.0229288 69.9907527,12.9551228 69.2687954,13.640648 Z M67.0026516,7.15606756 C69.6120594,7.15606756 70.9907973,8.41280806 70.9907973,10.7895851 C70.9907973,12.1907171 70.5626365,13.3084139 69.7170106,14.1119257 C68.8763982,14.913432 67.7359731,15.3202014 66.3278221,15.3202014 L64.3972548,15.3202014 L64.3972548,7.15606756 L67.0026516,7.15606756 Z M82.4969918,24.8122688 L82.492981,22.9254869 L81.7960916,24.5214805 L81.3154552,24.5214805 L80.6189001,22.9254869 L80.6189001,24.8122688 L79.9594456,24.8122688 L79.9594456,21.9050537 L80.7679709,21.9050537 L81.5554392,23.6344088 L82.3435759,21.9050537 L83.1477561,21.9050537 L83.1477561,24.8122688 L82.4969918,24.8122688 Z M85.2290655,24.8122688 L84.4947413,24.8122688 L84.4947413,23.8954499 L83.4208298,21.9097331 L84.1588306,21.9097331 L84.8597308,23.1741611 L85.5439191,21.9097331 L86.2819199,21.9097331 L85.2290655,23.874727 L85.2290655,24.8122688 Z M89.482263,24.1939258 L89.482263,24.8122688 L87.5129239,24.8122688 L87.5129239,21.9097331 L88.2509247,21.9097331 L88.2509247,24.1939258 L89.482263,24.1939258 Z M90.5725523,22.4899728 L90.5725523,23.0665359 L91.9573065,23.0665359 L91.9573065,23.6467757 L90.5725523,23.6467757 L90.5725523,24.2316948 L92.1521681,24.2316948 L92.1521681,24.8122688 L89.8345515,24.8122688 L89.8345515,21.9097331 L92.1067115,21.9097331 L92.1067115,22.4899728 L90.5725523,22.4899728 Z M93.2879139,24.2774856 L93.0763403,24.8122688 L92.3179509,24.8122688 L93.570012,21.9097331 L94.3284014,21.9097331 L95.551718,24.8122688 L94.7639155,24.8122688 L94.556687,24.2774856 L93.2879139,24.2774856 Z M93.9263113,22.6433887 L93.5031641,23.7173002 L94.3407683,23.7173002 L93.9263113,22.6433887 Z M97.1393556,23.9953875 L96.5587816,23.9953875 L96.5587816,24.8122688 L95.8207808,24.8122688 L95.8207808,21.9097331 L97.1186327,21.9097331 C97.8857124,21.9097331 98.3249031,22.2747226 98.3249031,22.921476 C98.3249031,23.3650118 98.1387317,23.6842105 97.7984759,23.8543384 L98.4077945,24.8122688 L97.5701903,24.8122688 L97.1393556,23.9953875 Z M97.1186327,23.4144793 C97.4378315,23.4144793 97.6246713,23.2533758 97.6246713,22.946544 C97.6246713,22.6433887 97.4378315,22.4899728 97.1186327,22.4899728 L96.5587816,22.4899728 L96.5587816,23.4144793 L97.1186327,23.4144793 Z M100.850082,24.8122688 L99.5147957,23.024756 L99.5147957,24.8122688 L98.8222514,24.8122688 L98.8222514,21.9097331 L99.47335,21.9097331 L100.812648,23.7009225 L100.812648,21.9097331 L101.500847,21.9097331 L101.500847,24.8122688 L100.850082,24.8122688 Z M102.080752,24.8122688 L102.080752,21.9097331 L102.819087,21.9097331 L102.819087,24.8122688 L102.080752,24.8122688 Z M105.426824,24.8122688 L104.091537,23.024756 L104.091537,24.8122688 L103.399327,24.8122688 L103.399327,21.9097331 L104.050091,21.9097331 L105.389389,23.7009225 L105.389389,21.9097331 L106.077922,21.9097331 L106.077922,24.8122688 L105.426824,24.8122688 Z M109.224453,23.3362672 L109.224453,24.4680021 C108.913276,24.6875975 108.423949,24.8453585 108.017848,24.8453585 C107.134788,24.8453585 106.466977,24.2069611 106.466977,23.3610009 C106.466977,22.5187174 107.150831,21.8849993 108.06765,21.8849993 C108.498819,21.8849993 108.954722,22.0507821 109.253532,22.315834 L108.838406,22.8178618 C108.626833,22.6226659 108.333036,22.5023397 108.063305,22.5023397 C107.586345,22.5023397 107.221356,22.8760194 107.221356,23.3610009 C107.221356,23.8543384 107.59069,24.2273497 108.071327,24.2273497 C108.221066,24.2273497 108.411583,24.1735371 108.585721,24.0863006 L108.585721,23.3362672 L109.224453,23.3362672 Z M81.6506974,28.845871 C81.6506974,29.4635456 81.2653193,29.8198449 80.6476447,29.8198449 C80.2371986,29.8198449 79.9052988,29.6500513 79.6482686,29.3555863 L79.9881902,28.8622488 C80.1957529,29.0781675 80.4277151,29.1861268 80.597843,29.1861268 C80.7927047,29.1861268 80.9086858,29.0651321 80.9086858,28.8288248 L80.9086858,27.4774945 L79.9136548,27.4774945 L79.9136548,26.8802086 L81.6506974,26.8802086 L81.6506974,28.845871 Z M85.1297963,28.3314764 C85.1297963,29.1774366 84.457975,29.8198449 83.5582022,29.8198449 C82.6627746,29.8198449 81.9909533,29.1814475 81.9909533,28.3314764 C81.9909533,27.4861848 82.6627746,26.8594857 83.5582022,26.8594857 C84.457975,26.8594857 85.1297963,27.4898614 85.1297963,28.3314764 Z M82.745666,28.3361558 C82.745666,28.8248139 83.1230224,29.2021703 83.566224,29.2021703 C84.0141049,29.2021703 84.3707384,28.8248139 84.3707384,28.3361558 C84.3707384,27.8464949 84.0141049,27.4774945 83.566224,27.4774945 C83.1183431,27.4774945 82.745666,27.8464949 82.745666,28.3361558 Z M88.1305985,28.5677838 C88.1305985,29.3348634 87.6208833,29.8198449 86.8080128,29.8198449 C85.9914658,29.8198449 85.4690494,29.3348634 85.4690494,28.5677838 L85.4690494,26.8848879 L86.206716,26.8848879 L86.206716,28.5677838 C86.206716,28.9621864 86.4600695,29.2021703 86.8123579,29.2021703 C87.1606355,29.2021703 87.3969428,28.9621864 87.3969428,28.5677838 L87.3969428,26.8848879 L88.1305985,26.8848879 L88.1305985,28.5677838 Z M89.9796114,28.9698739 L89.3990374,28.9698739 L89.3990374,29.7870894 L88.6610366,29.7870894 L88.6610366,26.8848879 L89.9592228,26.8848879 C90.7263024,26.8848879 91.1654931,27.249209 91.1654931,27.8959624 C91.1654931,28.3398324 90.9789875,28.6590312 90.6387317,28.8288248 L91.2483845,29.7870894 L90.4107803,29.7870894 L89.9796114,28.9698739 Z M89.9592228,28.3896341 C90.2784215,28.3896341 90.4649271,28.227528 90.4649271,27.9206961 C90.4649271,27.6185436 90.2784215,27.4651277 89.9592228,27.4651277 L89.3990374,27.4651277 L89.3990374,28.3896341 L89.9592228,28.3896341 Z M93.6903383,29.7870894 L92.3550515,27.9999109 L92.3550515,29.7870894 L91.6628415,29.7870894 L91.6628415,26.8848879 L92.31394,26.8848879 L93.6529034,28.6754089 L93.6529034,26.8848879 L94.3414368,26.8848879 L94.3414368,29.7870894 L93.6903383,29.7870894 Z M95.6596773,27.4651277 L95.6596773,28.0416908 L97.0440973,28.0416908 L97.0440973,28.6219306 L95.6596773,28.6219306 L95.6596773,29.2061812 L97.2392932,29.2061812 L97.2392932,29.7870894 L94.9213423,29.7870894 L94.9213423,26.8848879 L97.1935024,26.8848879 L97.1935024,27.4651277 L95.6596773,27.4651277 Z M99.2123089,29.7870894 L98.478319,29.7870894 L98.478319,28.8706048 L97.4044075,26.8848879 L98.1424083,26.8848879 L98.8433085,28.1493159 L99.5274968,26.8848879 L100.265498,26.8848879 L99.2123089,28.8498819 L99.2123089,29.7870894 Z" id="typ-brand" fill="#FFFFFF"></path>
    </g>
</svg>