<?xml version="1.0" encoding="UTF-8"?>
<svg width="183px" height="50px" viewBox="0 0 183 50" version="1.1" xmlns="http://www.w3.org/2000/svg" xmlns:xlink="http://www.w3.org/1999/xlink">
    <!-- Generator: Sketch 45.2 (43514) - http://www.bohemiancoding.com/sketch -->
    <title>typ-brand</title>
    <desc>Created with Sketch.</desc>
    <defs></defs>
    <g id="Page-1" stroke="none" stroke-width="1" fill="none" fill-rule="evenodd">
        <path d="M33.5871697,0.0562256319 L33.5871697,0.0562256319 L33.5871697,12.3228531 L38.9327733,12.3228531 L38.9327733,34.2801595 C38.9327733,37.6888453 36.1608138,40.4613619 32.7515709,40.4613619 L25.1063996,40.4613619 L19.4560809,49.9838451 L13.8074335,40.4613619 L6.18008824,40.4613619 C2.7725166,40.4613619 0,37.6888453 0,34.2801595 L0,6.18120237 C0,2.7725166 2.7725166,0 6.18008824,0 L32.7515709,0 C33.0349142,0 33.3138556,0.0191506819 33.5871697,0.0562256319 Z M33.5871697,0.821832459 C33.3147468,0.779552442 33.0356787,0.757609519 32.7515709,0.757609519 L6.18008824,0.757609519 C3.19031597,0.757609519 0.756495387,3.19031597 0.756495387,6.18120237 L0.756495387,34.2801595 C0.756495387,37.2710459 3.19031597,39.7043095 6.18008824,39.7043095 L14.2380454,39.7043095 L19.4560809,48.4998217 L24.6752306,39.7043095 L32.7515709,39.7043095 C35.7430144,39.7043095 38.1757208,37.2710459 38.1757208,34.2801595 L38.1757208,12.3228531 L33.5871697,12.3228531 L33.5871697,0.821832459 Z M22.1338963,14.454744 L22.1338963,13.7038192 L31.1544632,13.7038192 L31.1544632,14.454744 L22.1338963,14.454744 Z M22.1338963,18.9653059 L22.1338963,18.2138241 L31.1544632,18.2138241 L31.1544632,18.9653059 L22.1338963,18.9653059 Z M7.85128571,23.4753108 L7.85128571,22.723272 L31.1544632,22.723272 L31.1544632,23.4753108 L7.85128571,23.4753108 Z M7.85128571,27.9869869 L7.85128571,27.2355051 L31.1544632,27.2355051 L31.1544632,27.9869869 L7.85128571,27.9869869 Z M7.85128571,32.4969918 L7.85128571,31.74551 L31.1544632,31.74551 L31.1544632,32.4969918 L7.85128571,32.4969918 Z M8.60332457,18.9653059 L8.60332457,6.93825482 L19.8783368,6.93825482 L19.8783368,18.9653059 L8.60332457,18.9653059 Z M9.35480636,18.2138241 L19.126298,18.2138241 L19.126298,7.69029369 L9.35480636,7.69029369 L9.35480636,18.2138241 Z M127.86109,4.68380944 C124.317037,1.60490664 118.993716,0 112.01591,0 L111.582513,0.00222826329 L111.584184,0 L95.2565845,0 L85.6449708,11.9239939 L76.1080039,0 L33.5871697,0 L33.5871697,12.3228531 L47.2124426,12.3228531 L47.2124426,50 L62.2771737,50 L62.2771737,12.3228531 L69.4326842,12.3228531 L78.0577343,23.2402291 L78.0577343,50 L108.412808,50 L108.412808,37.5239538 L112.00644,37.5239538 C118.721868,37.5239538 123.99004,35.8026204 127.663889,32.4067472 C131.351107,29.0047462 133.222849,24.1259637 133.222849,17.9091091 C133.222849,12.2326084 131.419069,7.78388074 127.86109,4.68380944 L127.86109,4.68380944 Z M126.928562,31.6101431 C123.460827,34.8154998 118.441107,36.4399037 112.00644,36.4399037 L107.328758,36.4399037 L107.328758,48.8674852 L93.6962431,48.8674852 L93.6962431,22.2118856 L110.676166,1.12750123 L112.00644,1.12750123 C118.714069,1.12750123 123.808993,2.59926913 127.14916,5.50213913 C130.459245,8.38551183 132.138241,12.559049 132.138241,17.9091091 C132.138241,23.8112215 130.385155,28.4214983 126.928562,31.6101431 Z M115.447992,22.7344133 C114.2542,23.8736129 112.604728,24.450176 110.54637,24.450176 L108.412808,24.450176 L108.412808,13.0119435 L111.671086,13.0119435 C115.46749,13.0119435 117.234502,14.590668 117.234502,17.9826418 C117.234502,20.0382147 116.651255,21.5918713 115.447992,22.7344133 Z M111.671086,11.9267793 C116.020099,11.9267793 118.317995,14.0213468 118.317995,17.9826418 C118.317995,20.3178618 117.604394,22.1806899 116.195018,23.5198761 C114.793997,24.85572 112.893288,25.5336691 110.54637,25.5336691 L107.328758,25.5336691 L107.328758,11.9267793 L111.671086,11.9267793 Z M137.494986,41.3537814 L137.488302,38.2091448 L136.326819,40.8691341 L135.525759,40.8691341 L134.364834,38.2091448 L134.364834,41.3537814 L133.265743,41.3537814 L133.265743,36.5084228 L134.613285,36.5084228 L135.925732,39.3906814 L137.239293,36.5084228 L138.579594,36.5084228 L138.579594,41.3537814 L137.494986,41.3537814 Z M142.048442,41.3537814 L140.824569,41.3537814 L140.824569,39.8257498 L139.034716,36.5162218 L140.264718,36.5162218 L141.432885,38.6236018 L142.573198,36.5162218 L143.8032,36.5162218 L142.048442,39.7912117 L142.048442,41.3537814 Z M149.137105,40.3232096 L149.137105,41.3537814 L145.854873,41.3537814 L145.854873,36.5162218 L147.084875,36.5162218 L147.084875,40.3232096 L149.137105,40.3232096 Z M150.954254,37.483288 L150.954254,38.4442266 L153.262177,38.4442266 L153.262177,39.4112928 L150.954254,39.4112928 L150.954254,40.386158 L153.586947,40.386158 L153.586947,41.3537814 L149.724252,41.3537814 L149.724252,36.5162218 L153.511186,36.5162218 L153.511186,37.483288 L150.954254,37.483288 Z M155.479856,40.462476 L155.127234,41.3537814 L153.863251,41.3537814 L155.95002,36.5162218 L157.214002,36.5162218 L159.252863,41.3537814 L157.939859,41.3537814 L157.594478,40.462476 L155.479856,40.462476 Z M156.543852,37.7389812 L155.838607,39.5288337 L157.234614,39.5288337 L156.543852,37.7389812 Z M161.898926,39.9923125 L160.931303,39.9923125 L160.931303,41.3537814 L159.701301,41.3537814 L159.701301,36.5162218 L161.864388,36.5162218 C163.142854,36.5162218 163.874838,37.1245376 163.874838,38.20246 C163.874838,38.9416863 163.564553,39.4736842 162.99746,39.7572307 L164.012991,41.3537814 L162.616984,41.3537814 L161.898926,39.9923125 Z M161.864388,39.0241321 C162.396386,39.0241321 162.707786,38.7556264 162.707786,38.2442399 C162.707786,37.7389812 162.396386,37.483288 161.864388,37.483288 L160.931303,37.483288 L160.931303,39.0241321 L161.864388,39.0241321 Z M168.083471,41.3537814 L165.857993,38.3745933 L165.857993,41.3537814 L164.703752,41.3537814 L164.703752,36.5162218 L165.788917,36.5162218 L168.021079,39.5015375 L168.021079,36.5162218 L169.168078,36.5162218 L169.168078,41.3537814 L168.083471,41.3537814 Z M170.134587,41.3537814 L170.134587,36.5162218 L171.365146,36.5162218 L171.365146,41.3537814 L170.134587,41.3537814 Z M175.711373,41.3537814 L173.485895,38.3745933 L173.485895,41.3537814 L172.332212,41.3537814 L172.332212,36.5162218 L173.416819,36.5162218 L175.648982,39.5015375 L175.648982,36.5162218 L176.796537,36.5162218 L176.796537,41.3537814 L175.711373,41.3537814 Z M182.040755,38.8937787 L182.040755,40.7800036 C181.522127,41.1459958 180.706582,41.4089309 180.029747,41.4089309 C178.557979,41.4089309 177.444962,40.3449352 177.444962,38.9350016 C177.444962,37.5311957 178.584719,36.4749989 180.11275,36.4749989 C180.831365,36.4749989 181.591203,36.7513035 182.08922,37.1930567 L181.397344,38.0297696 C181.044721,37.7044432 180.55506,37.5038995 180.105508,37.5038995 C179.310575,37.5038995 178.702259,38.1266991 178.702259,38.9350016 C178.702259,39.7572307 179.317817,40.3789162 180.118878,40.3789162 C180.368443,40.3789162 180.685971,40.2892286 180.976202,40.1438344 L180.976202,38.8937787 L182.040755,38.8937787 Z M136.084496,48.0764517 C136.084496,49.1059094 135.442199,49.6997415 134.412741,49.6997415 C133.728664,49.6997415 133.175498,49.4167521 132.747114,48.9259771 L133.31365,48.1037479 C133.659588,48.4636125 134.046192,48.6435447 134.329738,48.6435447 C134.654508,48.6435447 134.84781,48.4418869 134.84781,48.0480414 L134.84781,45.7958242 L133.189425,45.7958242 L133.189425,44.8003476 L136.084496,44.8003476 L136.084496,48.0764517 Z M141.882994,47.2191274 C141.882994,48.629061 140.763292,49.6997415 139.26367,49.6997415 C137.771291,49.6997415 136.651589,48.6357458 136.651589,47.2191274 C136.651589,45.8103079 137.771291,44.7658095 139.26367,44.7658095 C140.763292,44.7658095 141.882994,45.8164357 141.882994,47.2191274 Z M137.909443,47.2269263 C137.909443,48.0413566 138.538371,48.6702839 139.27704,48.6702839 C140.023508,48.6702839 140.617897,48.0413566 140.617897,47.2269263 C140.617897,46.4108249 140.023508,45.7958242 139.27704,45.7958242 C138.530572,45.7958242 137.909443,46.4108249 137.909443,47.2269263 Z M146.884331,47.6129729 C146.884331,48.891439 146.034805,49.6997415 144.680021,49.6997415 C143.31911,49.6997415 142.448416,48.891439 142.448416,47.6129729 L142.448416,44.8081465 L143.67786,44.8081465 L143.67786,47.6129729 C143.67786,48.2703106 144.100116,48.6702839 144.687263,48.6702839 C145.267726,48.6702839 145.661571,48.2703106 145.661571,47.6129729 L145.661571,44.8081465 L146.884331,44.8081465 L146.884331,47.6129729 Z M149.966019,48.2831231 L148.998396,48.2831231 L148.998396,49.6451491 L147.768394,49.6451491 L147.768394,44.8081465 L149.932038,44.8081465 C151.210504,44.8081465 151.942489,45.4153483 151.942489,46.4932706 C151.942489,47.2330541 151.631646,47.7650519 151.064553,48.0480414 L152.080641,49.6451491 L150.684634,49.6451491 L149.966019,48.2831231 Z M149.932038,47.3160569 C150.464036,47.3160569 150.774879,47.0458799 150.774879,46.5344935 C150.774879,46.030906 150.464036,45.7752128 149.932038,45.7752128 L148.998396,45.7752128 L148.998396,47.3160569 L149.932038,47.3160569 Z M156.150564,49.6451491 L153.925086,46.6665181 L153.925086,49.6451491 L152.771402,49.6451491 L152.771402,44.8081465 L153.856567,44.8081465 L156.088172,47.7923481 L156.088172,44.8081465 L157.235728,44.8081465 L157.235728,49.6451491 L156.150564,49.6451491 Z M159.432796,45.7752128 L159.432796,46.7361513 L161.740162,46.7361513 L161.740162,47.7032176 L159.432796,47.7032176 L159.432796,48.6769687 L162.065489,48.6769687 L162.065489,49.6451491 L158.202237,49.6451491 L158.202237,44.8081465 L161.989171,44.8081465 L161.989171,45.7752128 L159.432796,45.7752128 Z M165.353848,49.6451491 L164.130532,49.6451491 L164.130532,48.1176746 L162.340679,44.8081465 L163.570681,44.8081465 L164.738848,46.9155265 L165.879161,44.8081465 L167.109163,44.8081465 L165.353848,48.0831365 L165.353848,49.6451491 Z" id="typ-brand" fill="#559DB2"></path>
    </g>
</svg>